<svg width="239" height="239" viewBox="0 0 239 239" fill="none" xmlns="http://www.w3.org/2000/svg">
<circle cx="119.5" cy="119.5" r="119.5" fill="#242424"/>
<mask id="mask0" mask-type="alpha" maskUnits="userSpaceOnUse" x="0" y="0" width="239" height="239">
<circle cx="119.5" cy="119.5" r="119.5" fill="#242424"/>
</mask>
<g mask="url(#mask0)">
<path d="M303.56 67.3952C318.715 105.945 278.082 157.998 212.805 183.66C147.528 209.322 82.3252 198.875 67.1705 160.325C52.0158 121.776 92.648 69.7222 157.925 44.0603C223.202 18.3983 288.405 28.8457 303.56 67.3952Z" fill="#D93654"/>
<path d="M303.56 37.3952C318.715 75.9447 278.082 127.998 212.805 153.66C147.528 179.322 82.3252 168.875 67.1705 130.325C52.0158 91.7759 92.648 39.7222 157.925 14.0603C223.202 -11.6017 288.405 -1.15426 303.56 37.3952Z" fill="#D93654"/>
<path d="M129.468 132C129.228 132 129.024 131.928 128.856 131.784C128.712 131.616 128.64 131.412 128.64 131.172V110.004H121.728C121.488 110.004 121.284 109.932 121.116 109.788C120.972 109.62 120.9 109.416 120.9 109.176V107.664C120.9 107.424 120.972 107.22 121.116 107.052C121.284 106.884 121.488 106.8 121.728 106.8H139.08C139.344 106.8 139.548 106.884 139.692 107.052C139.86 107.196 139.944 107.4 139.944 107.664V109.176C139.944 109.416 139.86 109.62 139.692 109.788C139.524 109.932 139.32 110.004 139.08 110.004H132.204V131.172C132.204 131.412 132.12 131.616 131.952 131.784C131.784 131.928 131.58 132 131.34 132H129.468ZM147.554 132.36C145.082 132.36 143.102 131.604 141.614 130.092C140.15 128.556 139.346 126.468 139.202 123.828L139.166 122.604L139.202 121.416C139.37 118.824 140.186 116.76 141.65 115.224C143.138 113.688 145.094 112.92 147.518 112.92C150.182 112.92 152.246 113.772 153.71 115.476C155.174 117.156 155.906 119.436 155.906 122.316V122.928C155.906 123.168 155.822 123.372 155.654 123.54C155.51 123.684 155.318 123.756 155.078 123.756H142.622V124.08C142.694 125.64 143.162 126.972 144.026 128.076C144.914 129.156 146.078 129.696 147.518 129.696C148.622 129.696 149.522 129.48 150.218 129.048C150.938 128.592 151.466 128.124 151.802 127.644C152.018 127.356 152.174 127.188 152.27 127.14C152.39 127.068 152.594 127.032 152.882 127.032H154.646C154.862 127.032 155.042 127.092 155.186 127.212C155.33 127.332 155.402 127.5 155.402 127.716C155.402 128.244 155.066 128.88 154.394 129.624C153.746 130.368 152.822 131.016 151.622 131.568C150.446 132.096 149.09 132.36 147.554 132.36ZM152.486 121.272V121.164C152.486 119.508 152.03 118.164 151.118 117.132C150.23 116.076 149.03 115.548 147.518 115.548C146.006 115.548 144.806 116.076 143.918 117.132C143.054 118.164 142.622 119.508 142.622 121.164V121.272H152.486ZM167.771 132.36C165.203 132.36 163.187 131.64 161.723 130.2C160.283 128.736 159.515 126.696 159.419 124.08L159.383 122.64L159.419 121.2C159.515 118.584 160.283 116.556 161.723 115.116C163.187 113.652 165.203 112.92 167.771 112.92C169.499 112.92 170.963 113.232 172.163 113.856C173.363 114.48 174.251 115.248 174.827 116.16C175.427 117.072 175.751 117.984 175.799 118.896C175.823 119.136 175.751 119.328 175.583 119.472C175.415 119.616 175.211 119.688 174.971 119.688H173.243C173.003 119.688 172.823 119.64 172.703 119.544C172.583 119.448 172.463 119.256 172.343 118.968C171.935 117.816 171.359 117 170.615 116.52C169.871 116.016 168.935 115.764 167.807 115.764C166.319 115.764 165.131 116.232 164.243 117.168C163.379 118.08 162.911 119.484 162.839 121.38L162.803 122.676L162.839 123.9C162.911 125.82 163.379 127.236 164.243 128.148C165.107 129.06 166.295 129.516 167.807 129.516C168.935 129.516 169.871 129.276 170.615 128.796C171.359 128.292 171.935 127.464 172.343 126.312C172.463 126.024 172.583 125.832 172.703 125.736C172.823 125.616 173.003 125.556 173.243 125.556H174.971C175.211 125.556 175.415 125.64 175.583 125.808C175.751 125.952 175.823 126.144 175.799 126.384C175.751 127.272 175.427 128.184 174.827 129.12C174.251 130.032 173.363 130.8 172.163 131.424C170.987 132.048 169.523 132.36 167.771 132.36ZM180.938 132C180.698 132 180.494 131.928 180.326 131.784C180.182 131.616 180.11 131.412 180.11 131.172V107.268C180.11 107.028 180.182 106.836 180.326 106.692C180.494 106.524 180.698 106.44 180.938 106.44H182.738C182.978 106.44 183.17 106.524 183.314 106.692C183.482 106.836 183.566 107.028 183.566 107.268V115.656C184.262 114.768 185.078 114.096 186.014 113.64C186.95 113.16 188.114 112.92 189.506 112.92C191.81 112.92 193.598 113.664 194.87 115.152C196.166 116.616 196.814 118.572 196.814 121.02V131.172C196.814 131.412 196.73 131.616 196.562 131.784C196.418 131.928 196.226 132 195.986 132H194.186C193.946 132 193.742 131.928 193.574 131.784C193.43 131.616 193.358 131.412 193.358 131.172V121.2C193.358 119.496 192.938 118.176 192.098 117.24C191.282 116.304 190.094 115.836 188.534 115.836C187.022 115.836 185.81 116.316 184.898 117.276C184.01 118.212 183.566 119.52 183.566 121.2V131.172C183.566 131.412 183.482 131.616 183.314 131.784C183.17 131.928 182.978 132 182.738 132H180.938Z" fill="#D7D5D5"/>
</g>
</svg>
