<svg width="277" height="239" viewBox="0 0 277 239" fill="none" xmlns="http://www.w3.org/2000/svg">
<rect x="21" width="239" height="239" rx="9" fill="#242424"/>
<rect x="44" y="23" width="193" height="193" rx="9" fill="#353535"/>
<path d="M91.2523 25.8294C91.1581 25.0064 90.4145 24.4155 89.5914 24.5097C88.7684 24.6039 88.1775 25.3475 88.2717 26.1706L91.2523 25.8294ZM3.89284 74.8867C3.22715 74.3936 2.28776 74.5335 1.79466 75.1992C1.30156 75.8649 1.44147 76.8043 2.10715 77.2974L3.89284 74.8867ZM59.4635 73.7055L60.2135 75.0046L59.4635 73.7055ZM88.3472 28.1081C88.3462 28.9366 89.017 29.6089 89.8454 29.6099C90.6739 29.6108 91.3462 28.94 91.3472 28.1116L88.3472 28.1081ZM91.0823 32.5173C91.1763 31.6943 90.5853 30.9508 89.7623 30.8567C88.9392 30.7627 88.1957 31.3537 88.1017 32.1768L91.0823 32.5173ZM87.4387 36.2274C87.2665 37.0377 87.7839 37.8342 88.5942 38.0063C89.4046 38.1785 90.201 37.6611 90.3732 36.8508L87.4387 36.2274ZM89.2672 41.0978C89.5117 40.3063 89.0683 39.4664 88.2768 39.2219C87.4852 38.9774 86.6454 39.4208 86.4009 40.2124L89.2672 41.0978ZM85.0152 44.087C84.7027 44.8542 85.0712 45.7296 85.8384 46.0421C86.6056 46.3547 87.481 45.9861 87.7935 45.2189L85.0152 44.087ZM85.9725 49.1945C86.349 48.4566 86.056 47.5531 85.3181 47.1766C84.5802 46.8001 83.6768 47.0931 83.3002 47.831L85.9725 49.1945ZM81.2739 51.4258C80.8378 52.1302 81.0554 53.0547 81.7598 53.4907C82.4642 53.9267 83.3887 53.7092 83.8247 53.0048L81.2739 51.4258ZM81.3825 56.6195C81.8729 55.9518 81.7293 55.013 81.0616 54.5226C80.3939 54.0322 79.4551 54.1759 78.9647 54.8435L81.3825 56.6195ZM76.3963 58.0746C75.8569 58.7034 75.9293 59.6503 76.5581 60.1897C77.1868 60.7292 78.1338 60.6567 78.6732 60.028L76.3963 58.0746ZM75.7125 63.2364C76.2955 62.648 76.2911 61.6982 75.7026 61.1151C75.1141 60.5321 74.1644 60.5365 73.5813 61.125L75.7125 63.2364ZM70.5743 63.9613C69.9532 64.5095 69.8941 65.4574 70.4423 66.0785C70.9905 66.6996 71.9384 66.7587 72.5595 66.2105L70.5743 63.9613ZM69.2092 68.9838C69.8634 68.4756 69.9817 67.5332 69.4735 66.879C68.9652 66.2248 68.0229 66.1065 67.3687 66.6147L69.2092 68.9838ZM64.0119 69.068C63.3293 69.5375 63.1566 70.4714 63.6261 71.154C64.0956 71.8365 65.0295 72.0092 65.7121 71.5397L64.0119 69.068ZM62.0882 73.8904C62.7949 73.4581 63.0173 72.5347 62.5849 71.828C62.1526 71.1214 61.2293 70.899 60.5226 71.3313L62.0882 73.8904ZM56.8778 73.4356C56.15 73.8315 55.8809 74.7423 56.2768 75.4701C56.6726 76.1978 57.5834 76.4669 58.3112 76.071L56.8778 73.4356ZM54.4635 78.0341C55.2114 77.6777 55.5288 76.7826 55.1724 76.0347C54.8161 75.2868 53.9209 74.9694 53.1731 75.3258L54.4635 78.0341ZM49.3701 77.0062C48.6028 77.3187 48.2341 78.1939 48.5465 78.9612C48.859 79.7284 49.7342 80.0971 50.5015 79.7847L49.3701 77.0062ZM46.4245 81.2996C47.2099 81.0358 47.6326 80.1853 47.3689 79.4C47.1051 78.6147 46.2546 78.1919 45.4693 78.4557L46.4245 81.2996ZM41.5094 79.6417C40.7083 79.8524 40.2296 80.6727 40.4403 81.4739C40.651 82.2751 41.4713 82.7537 42.2725 82.543L41.5094 79.6417ZM38.0135 83.5029C38.8277 83.3501 39.3639 82.5662 39.2112 81.752C39.0584 80.9378 38.2745 80.4016 37.4603 80.5543L38.0135 83.5029ZM33.3779 81.1631C32.5545 81.254 31.9606 81.9952 32.0515 82.8186C32.1424 83.642 32.8836 84.2359 33.707 84.145L33.3779 81.1631ZM29.3555 84.4526C30.1835 84.4272 30.8342 83.7353 30.8088 82.9073C30.7833 82.0793 30.0915 81.4286 29.2634 81.454L29.3555 84.4526ZM25.1371 81.4115C24.3097 81.3686 23.6043 82.0045 23.5614 82.8319C23.5186 83.6592 24.1545 84.3646 24.9818 84.4075L25.1371 81.4115ZM20.6283 83.9968C21.449 84.1097 22.2059 83.5359 22.3188 82.7152C22.4317 81.8945 21.8579 81.1377 21.0372 81.0248L20.6283 83.9968ZM16.9889 80.2874C16.1811 80.1034 15.3771 80.609 15.1931 81.4168C15.0091 82.2245 15.5147 83.0285 16.3225 83.2125L16.9889 80.2874ZM12.0915 82.0468C12.8793 82.3028 13.7256 81.8718 13.9817 81.0839C14.2378 80.2961 13.8067 79.4498 13.0188 79.1937L12.0915 82.0468ZM9.17941 77.7426C8.41959 77.4125 7.53604 77.7609 7.20595 78.5207C6.87586 79.2805 7.22422 80.1641 7.98404 80.4941L9.17941 77.7426ZM4.03612 78.5207C4.75404 78.934 5.67114 78.6872 6.08453 77.9693C6.49792 77.2514 6.25105 76.3342 5.53314 75.9209L4.03612 78.5207ZM89.762 26C88.2717 26.1706 88.2717 26.1704 88.2717 26.1703C88.2717 26.1702 88.2717 26.1701 88.2717 26.17C88.2716 26.1698 88.2716 26.1697 88.2716 26.1695C88.2716 26.1692 88.2715 26.1689 88.2715 26.1687C88.2715 26.1683 88.2714 26.1681 88.2714 26.168C88.2714 26.1679 88.2715 26.1685 88.2716 26.1698C88.2719 26.1725 88.2725 26.1781 88.2734 26.1865C88.2751 26.2033 88.2778 26.2316 88.2813 26.2709C88.2882 26.3496 88.298 26.4727 88.3079 26.6376C88.3276 26.9674 88.3479 27.4644 88.3472 28.1081L91.3472 28.1116C91.348 27.4032 91.3257 26.8451 91.3025 26.4581C91.2909 26.2646 91.279 26.1137 91.2698 26.0081C91.2651 25.9553 91.2611 25.9138 91.2581 25.8839C91.2566 25.869 91.2553 25.8569 91.2543 25.8478C91.2538 25.8433 91.2534 25.8395 91.2531 25.8364C91.2529 25.8349 91.2527 25.8335 91.2526 25.8324C91.2525 25.8318 91.2525 25.8312 91.2524 25.8308C91.2524 25.8305 91.2524 25.8303 91.2523 25.8301C91.2523 25.83 91.2523 25.8298 91.2523 25.8297C91.2523 25.8296 91.2523 25.8294 89.762 26ZM88.1017 32.1768C87.9634 33.3871 87.7531 34.7473 87.4387 36.2274L90.3732 36.8508C90.7087 35.2713 90.9339 33.8164 91.0823 32.5173L88.1017 32.1768ZM86.4009 40.2124C86.0169 41.4552 85.5596 42.751 85.0152 44.087L87.7935 45.2189C88.372 43.799 88.8585 42.4209 89.2672 41.0978L86.4009 40.2124ZM83.3002 47.831C82.6982 49.0109 82.0255 50.2116 81.2739 51.4258L83.8247 53.0048C84.6206 51.7191 85.3337 50.4464 85.9725 49.1945L83.3002 47.831ZM78.9647 54.8435C78.1762 55.917 77.3219 56.9957 76.3963 58.0746L78.6732 60.028C79.6483 58.8914 80.5496 57.7535 81.3825 56.6195L78.9647 54.8435ZM73.5813 61.125C72.6402 62.0748 71.6391 63.0215 70.5743 63.9613L72.5595 66.2105C73.6743 65.2266 74.724 64.234 75.7125 63.2364L73.5813 61.125ZM67.3687 66.6147C66.3048 67.4413 65.1867 68.2599 64.0119 69.068L65.7121 71.5397C66.9341 70.6991 68.099 69.8463 69.2092 68.9838L67.3687 66.6147ZM60.5226 71.3313C59.9322 71.6925 59.3293 72.051 58.7135 72.4065L60.2135 75.0046C60.8511 74.6364 61.476 74.2649 62.0882 73.8904L60.5226 71.3313ZM58.7135 72.4065C58.0977 72.762 57.4857 73.105 56.8778 73.4356L58.3112 76.071C58.9417 75.7281 59.5758 75.3727 60.2135 75.0046L58.7135 72.4065ZM53.1731 75.3258C51.8857 75.9392 50.6178 76.4981 49.3701 77.0062L50.5015 79.7847C51.8035 79.2545 53.1245 78.6721 54.4635 78.0341L53.1731 75.3258ZM45.4693 78.4557C44.123 78.9079 42.8026 79.3016 41.5094 79.6417L42.2725 82.543C43.6306 82.1858 45.0151 81.773 46.4245 81.2996L45.4693 78.4557ZM37.4603 80.5543C36.0631 80.8165 34.7018 81.017 33.3779 81.1631L33.707 84.145C35.1056 83.9906 36.5416 83.779 38.0135 83.5029L37.4603 80.5543ZM29.2634 81.454C27.8362 81.4978 26.4599 81.4801 25.1371 81.4115L24.9818 84.4075C26.3853 84.4802 27.8441 84.499 29.3555 84.4526L29.2634 81.454ZM21.0372 81.0248C19.608 80.8281 18.2572 80.5764 16.9889 80.2874L16.3225 83.2125C17.6726 83.5201 19.1094 83.7878 20.6283 83.9968L21.0372 81.0248ZM13.0188 79.1937C11.5798 78.726 10.2967 78.228 9.17941 77.7426L7.98404 80.4941C9.18329 81.0151 10.5558 81.5476 12.0915 82.0468L13.0188 79.1937ZM5.53314 75.9209C4.97523 75.5996 4.55503 75.3336 4.27925 75.1515C4.14139 75.0605 4.03968 74.9905 3.97498 74.9452C3.94263 74.9225 3.91954 74.906 3.90581 74.8961C3.89895 74.8912 3.89443 74.8879 3.89226 74.8863C3.89118 74.8855 3.89068 74.8851 3.89078 74.8852C3.89083 74.8852 3.89102 74.8854 3.89137 74.8856C3.89154 74.8858 3.89175 74.8859 3.89199 74.8861C3.89212 74.8862 3.89224 74.8863 3.89238 74.8864C3.89246 74.8865 3.89257 74.8865 3.89261 74.8866C3.89272 74.8866 3.89284 74.8867 3 76.0921C2.10715 77.2974 2.10727 77.2975 2.1074 77.2976C2.10744 77.2976 2.10757 77.2977 2.10766 77.2978C2.10783 77.2979 2.10803 77.298 2.10822 77.2982C2.10862 77.2985 2.10905 77.2988 2.10952 77.2992C2.11046 77.2998 2.11156 77.3007 2.1128 77.3016C2.11528 77.3034 2.11837 77.3057 2.12206 77.3084C2.12945 77.3138 2.13923 77.3209 2.15142 77.3297C2.17578 77.3472 2.20972 77.3714 2.25313 77.4019C2.33995 77.4627 2.46469 77.5484 2.6265 77.6552C2.95008 77.8688 3.4222 78.1671 4.03612 78.5207L5.53314 75.9209Z" fill="#666666"/>
<path d="M178.69 213.619C178.441 214.409 178.881 215.251 179.671 215.5C180.461 215.748 181.303 215.309 181.552 214.518L178.69 213.619ZM270.123 150.965C270.362 150.171 269.913 149.335 269.12 149.095C268.327 148.856 267.49 149.305 267.251 150.099L270.123 150.965ZM224.708 182.082L224.458 183.561L224.708 182.082ZM182.24 212.619C182.541 211.847 182.16 210.978 181.388 210.677C180.616 210.375 179.747 210.757 179.445 211.529L182.24 212.619ZM181.197 207.485C180.842 208.233 181.161 209.128 181.909 209.483C182.657 209.839 183.552 209.52 183.907 208.772L181.197 207.485ZM185.826 205.051C186.23 204.328 185.971 203.414 185.248 203.01C184.524 202.606 183.611 202.865 183.207 203.589L185.826 205.051ZM185.477 199.829C185.024 200.523 185.22 201.452 185.914 201.905C186.607 202.358 187.537 202.162 187.99 201.468L185.477 199.829ZM190.397 198.062C190.901 197.404 190.776 196.463 190.118 195.959C189.461 195.455 188.519 195.58 188.015 196.238L190.397 198.062ZM190.841 192.848C190.284 193.461 190.329 194.41 190.942 194.967C191.555 195.524 192.503 195.479 193.061 194.866L190.841 192.848ZM195.988 191.933C196.601 191.375 196.646 190.427 196.088 189.814C195.531 189.201 194.582 189.156 193.969 189.713L195.988 191.933ZM197.41 186.899C196.742 187.388 196.596 188.326 197.085 188.995C197.574 189.663 198.512 189.809 199.181 189.32L197.41 186.899ZM202.633 187.092C203.355 186.685 203.61 185.77 203.204 185.049C202.797 184.327 201.882 184.072 201.161 184.478L202.633 187.092ZM205.188 182.532C204.421 182.844 204.051 183.719 204.363 184.487C204.674 185.254 205.549 185.624 206.317 185.312L205.188 182.532ZM210.191 184.028C210.993 183.821 211.475 183.002 211.267 182.2C211.059 181.398 210.24 180.917 209.438 181.124L210.191 184.028ZM213.84 180.288C213.017 180.389 212.433 181.138 212.534 181.96C212.635 182.782 213.384 183.367 214.206 183.266L213.84 180.288ZM218.298 183.022C219.126 183.024 219.799 182.353 219.8 181.525C219.802 180.696 219.132 180.024 218.303 180.022L218.298 183.022ZM222.743 180.287C221.92 180.192 221.176 180.781 221.081 181.604C220.985 182.427 221.575 183.172 222.398 183.267L222.743 180.287ZM226.647 183.875C227.47 183.971 228.215 183.382 228.311 182.559C228.408 181.736 227.819 180.991 226.996 180.895L226.647 183.875ZM231.049 181.147C230.22 181.143 229.545 181.81 229.54 182.639C229.535 183.467 230.203 184.142 231.032 184.147L231.049 181.147ZM235.446 183.905C236.269 183.808 236.857 183.063 236.761 182.24C236.664 181.418 235.919 180.829 235.096 180.925L235.446 183.905ZM239.068 180.197C238.264 180.399 237.777 181.215 237.98 182.018C238.182 182.821 238.998 183.308 239.801 183.106L239.068 180.197ZM244.012 181.742C244.782 181.436 245.157 180.563 244.851 179.794C244.544 179.024 243.672 178.649 242.902 178.955L244.012 181.742ZM246.552 177.22C245.828 177.622 245.567 178.536 245.97 179.26C246.373 179.984 247.286 180.244 248.01 179.841L246.552 177.22ZM251.731 177.463C252.402 176.977 252.551 176.039 252.064 175.368C251.578 174.698 250.64 174.549 249.969 175.036L251.731 177.463ZM253.127 172.464C252.513 173.021 252.467 173.97 253.024 174.583C253.581 175.197 254.529 175.243 255.143 174.686L253.127 172.464ZM258.238 171.585C258.795 170.971 258.749 170.022 258.135 169.466C257.522 168.909 256.573 168.955 256.016 169.569L258.238 171.585ZM258.639 166.408C258.137 167.068 258.265 168.009 258.925 168.51C259.584 169.012 260.525 168.884 261.027 168.224L258.639 166.408ZM263.523 164.66C263.972 163.964 263.771 163.036 263.075 162.587C262.379 162.138 261.45 162.338 261.001 163.034L263.523 164.66ZM263.115 159.485C262.716 160.211 262.982 161.123 263.708 161.521C264.434 161.92 265.346 161.655 265.744 160.928L263.115 159.485ZM267.702 157.057C268.051 156.306 267.725 155.414 266.974 155.065C266.222 154.716 265.33 155.043 264.981 155.794L267.702 157.057ZM266.592 151.98C266.298 152.755 266.689 153.621 267.464 153.914C268.238 154.207 269.104 153.817 269.397 153.042L266.592 151.98ZM180.121 214.069C181.552 214.518 181.552 214.518 181.552 214.519C181.551 214.519 181.551 214.519 181.551 214.519C181.551 214.519 181.551 214.519 181.551 214.519C181.551 214.519 181.551 214.519 181.551 214.519C181.551 214.519 181.551 214.519 181.551 214.519C181.552 214.518 181.552 214.517 181.553 214.515C181.554 214.511 181.556 214.504 181.559 214.495C181.565 214.476 181.575 214.446 181.589 214.405C181.615 214.324 181.657 214.2 181.714 214.037C181.828 213.711 182.002 213.229 182.24 212.619L179.445 211.529C179.193 212.174 179.007 212.69 178.882 213.048C178.819 213.227 178.772 213.366 178.74 213.462C178.724 213.511 178.712 213.548 178.704 213.574C178.7 213.587 178.696 213.598 178.694 213.605C178.693 213.609 178.692 213.612 178.691 213.614C178.691 213.615 178.69 213.616 178.69 213.617C178.69 213.618 178.69 213.618 178.69 213.618C178.69 213.618 178.69 213.619 178.69 213.619C178.69 213.619 178.69 213.619 178.69 213.619C178.69 213.619 178.69 213.619 180.121 214.069ZM183.907 208.772C184.448 207.633 185.086 206.378 185.826 205.051L183.207 203.589C182.431 204.978 181.763 206.293 181.197 207.485L183.907 208.772ZM187.99 201.468C188.724 200.343 189.526 199.199 190.397 198.062L188.015 196.238C187.095 197.44 186.249 198.645 185.477 199.829L187.99 201.468ZM193.061 194.866C193.977 193.858 194.952 192.875 195.988 191.933L193.969 189.713C192.858 190.724 191.816 191.775 190.841 192.848L193.061 194.866ZM199.181 189.32C200.276 188.52 201.426 187.772 202.633 187.092L201.161 184.478C199.844 185.22 198.595 186.032 197.41 186.899L199.181 189.32ZM206.317 185.312C207.555 184.809 208.846 184.377 210.191 184.028L209.438 181.124C207.961 181.507 206.545 181.981 205.188 182.532L206.317 185.312ZM214.206 183.266C215.521 183.104 216.885 183.019 218.298 183.022L218.303 180.022C216.767 180.019 215.279 180.111 213.84 180.288L214.206 183.266ZM222.398 183.267C223.074 183.345 223.761 183.443 224.458 183.561L224.958 180.603C224.21 180.476 223.472 180.371 222.743 180.287L222.398 183.267ZM224.458 183.561C225.197 183.686 225.927 183.79 226.647 183.875L226.996 180.895C226.327 180.817 225.648 180.72 224.958 180.603L224.458 183.561ZM231.032 184.147C232.552 184.156 234.023 184.072 235.446 183.905L235.096 180.925C233.796 181.078 232.447 181.155 231.049 181.147L231.032 184.147ZM239.801 183.106C241.265 182.737 242.668 182.278 244.012 181.742L242.902 178.955C241.678 179.443 240.401 179.861 239.068 180.197L239.801 183.106ZM248.01 179.841C249.318 179.114 250.557 178.316 251.731 177.463L249.969 175.036C248.887 175.821 247.748 176.554 246.552 177.22L248.01 179.841ZM255.143 174.686C256.244 173.687 257.275 172.647 258.238 171.585L256.016 169.569C255.113 170.565 254.151 171.536 253.127 172.464L255.143 174.686ZM261.027 168.224C261.934 167.032 262.765 165.835 263.523 164.66L261.001 163.034C260.282 164.15 259.495 165.282 258.639 166.408L261.027 168.224ZM265.744 160.928C266.502 159.548 267.153 158.242 267.702 157.057L264.981 155.794C264.457 156.923 263.837 158.169 263.115 159.485L265.744 160.928ZM269.397 153.042C269.64 152.401 269.819 151.888 269.939 151.533C269.999 151.355 270.044 151.217 270.074 151.121C270.09 151.073 270.101 151.036 270.109 151.009C270.114 150.996 270.117 150.986 270.119 150.979C270.12 150.975 270.121 150.972 270.122 150.969C270.122 150.968 270.122 150.967 270.123 150.967C270.123 150.966 270.123 150.966 270.123 150.965C270.123 150.965 270.123 150.965 270.123 150.965C270.123 150.965 270.123 150.965 270.123 150.965C270.123 150.965 270.123 150.965 268.687 150.532C267.251 150.099 267.251 150.099 267.251 150.098C267.251 150.098 267.251 150.098 267.251 150.098C267.251 150.098 267.251 150.098 267.251 150.098C267.251 150.098 267.251 150.098 267.251 150.098C267.251 150.098 267.251 150.098 267.251 150.098C267.251 150.099 267.251 150.1 267.25 150.102C267.249 150.106 267.247 150.112 267.244 150.122C267.238 150.14 267.229 150.17 267.216 150.211C267.19 150.291 267.15 150.414 267.096 150.575C266.987 150.898 266.82 151.376 266.592 151.98L269.397 153.042Z" fill="#666666"/>
<rect x="79" y="83" width="43" height="43" rx="6" fill="#D93654"/>
<rect x="202" y="15" width="43" height="43" rx="6" fill="#D9BEA7"/>
<rect x="166" y="132" width="43" height="43" rx="6" fill="#0F698C"/>
<rect x="14" y="182" width="43" height="43" rx="6" fill="#60A4BF"/>
</svg>
