<svg width="20" height="20" viewBox="0 0 20 20" fill="none" xmlns="http://www.w3.org/2000/svg">
<g clip-path="url(#clip0)">
<path d="M7.19625 1.33875C7.26668 1.38093 7.32812 1.43657 7.37704 1.50249C7.42597 1.56842 7.46142 1.64333 7.48139 1.72296C7.50135 1.80259 7.50544 1.88538 7.4934 1.96658C7.48137 2.04779 7.45345 2.12583 7.41125 2.19625L4.22875 7.5H15.7712L12.5875 2.19625C12.5023 2.05403 12.4771 1.88379 12.5174 1.72297C12.5577 1.56216 12.6603 1.42395 12.8025 1.33875C12.9447 1.25355 13.115 1.22834 13.2758 1.26866C13.4366 1.30898 13.5748 1.41153 13.66 1.55375L17.2287 7.5H18.75C19.0815 7.5 19.3995 7.6317 19.6339 7.86612C19.8683 8.10054 20 8.41848 20 8.75V10C20 10.3315 19.8683 10.6495 19.6339 10.8839C19.3995 11.1183 19.0815 11.25 18.75 11.25V16.875C18.75 17.7038 18.4208 18.4987 17.8347 19.0847C17.2487 19.6708 16.4538 20 15.625 20H4.375C3.5462 20 2.75134 19.6708 2.16529 19.0847C1.57924 18.4987 1.25 17.7038 1.25 16.875V11.25C0.918479 11.25 0.600537 11.1183 0.366117 10.8839C0.131696 10.6495 0 10.3315 0 10V8.75C0 8.41848 0.131696 8.10054 0.366117 7.86612C0.600537 7.6317 0.918479 7.5 1.25 7.5H2.77125L6.3375 1.55375C6.37968 1.48332 6.43532 1.42189 6.50124 1.37296C6.56716 1.32404 6.64208 1.28858 6.72171 1.26861C6.80134 1.24865 6.88412 1.24456 6.96533 1.2566C7.04654 1.26863 7.12458 1.29655 7.195 1.33875H7.19625ZM2.5 11.25V16.875C2.5 17.3723 2.69754 17.8492 3.04917 18.2008C3.40081 18.5525 3.87772 18.75 4.375 18.75H15.625C16.1223 18.75 16.5992 18.5525 16.9508 18.2008C17.3025 17.8492 17.5 17.3723 17.5 16.875V11.25H2.5ZM1.25 8.75V10H18.75V8.75H1.25ZM5 12.5C5.16576 12.5 5.32473 12.5658 5.44194 12.6831C5.55915 12.8003 5.625 12.9592 5.625 13.125V16.875C5.625 17.0408 5.55915 17.1997 5.44194 17.3169C5.32473 17.4342 5.16576 17.5 5 17.5C4.83424 17.5 4.67527 17.4342 4.55806 17.3169C4.44085 17.1997 4.375 17.0408 4.375 16.875V13.125C4.375 12.9592 4.44085 12.8003 4.55806 12.6831C4.67527 12.5658 4.83424 12.5 5 12.5ZM7.5 12.5C7.66576 12.5 7.82473 12.5658 7.94194 12.6831C8.05915 12.8003 8.125 12.9592 8.125 13.125V16.875C8.125 17.0408 8.05915 17.1997 7.94194 17.3169C7.82473 17.4342 7.66576 17.5 7.5 17.5C7.33424 17.5 7.17527 17.4342 7.05806 17.3169C6.94085 17.1997 6.875 17.0408 6.875 16.875V13.125C6.875 12.9592 6.94085 12.8003 7.05806 12.6831C7.17527 12.5658 7.33424 12.5 7.5 12.5V12.5ZM10 12.5C10.1658 12.5 10.3247 12.5658 10.4419 12.6831C10.5592 12.8003 10.625 12.9592 10.625 13.125V16.875C10.625 17.0408 10.5592 17.1997 10.4419 17.3169C10.3247 17.4342 10.1658 17.5 10 17.5C9.83424 17.5 9.67527 17.4342 9.55806 17.3169C9.44085 17.1997 9.375 17.0408 9.375 16.875V13.125C9.375 12.9592 9.44085 12.8003 9.55806 12.6831C9.67527 12.5658 9.83424 12.5 10 12.5V12.5ZM12.5 12.5C12.6658 12.5 12.8247 12.5658 12.9419 12.6831C13.0592 12.8003 13.125 12.9592 13.125 13.125V16.875C13.125 17.0408 13.0592 17.1997 12.9419 17.3169C12.8247 17.4342 12.6658 17.5 12.5 17.5C12.3342 17.5 12.1753 17.4342 12.0581 17.3169C11.9408 17.1997 11.875 17.0408 11.875 16.875V13.125C11.875 12.9592 11.9408 12.8003 12.0581 12.6831C12.1753 12.5658 12.3342 12.5 12.5 12.5ZM15 12.5C15.1658 12.5 15.3247 12.5658 15.4419 12.6831C15.5592 12.8003 15.625 12.9592 15.625 13.125V16.875C15.625 17.0408 15.5592 17.1997 15.4419 17.3169C15.3247 17.4342 15.1658 17.5 15 17.5C14.8342 17.5 14.6753 17.4342 14.5581 17.3169C14.4408 17.1997 14.375 17.0408 14.375 16.875V13.125C14.375 12.9592 14.4408 12.8003 14.5581 12.6831C14.6753 12.5658 14.8342 12.5 15 12.5Z" fill="#DCDDE9"/>
</g>
<defs>
<clipPath id="clip0">
<rect width="20" height="20" fill="white"/>
</clipPath>
</defs>
</svg>
